<svg width="215" height="128" viewBox="0 0 215 128" fill="none" xmlns="http://www.w3.org/2000/svg">
<g clip-path="url(#clip0_1720_6518)">
<path d="M210.797 36.8984L109.596 1.19204C108.24 0.71333 106.761 0.71333 105.405 1.19204L4.20342 36.8984C1.68725 37.7861 0.00336441 40.1629 5.03362e-06 42.8311C-0.00335434 45.4993 1.67507 47.8798 4.18915 48.7734L105.39 84.751C106.073 84.9937 106.787 85.1151 107.5 85.1151C108.214 85.1151 108.927 84.9937 109.61 84.751L210.811 48.7734C213.325 47.8798 215.003 45.4993 215 42.8311C214.997 40.1629 213.313 37.7861 210.797 36.8984Z" fill="white"/>
<path d="M107.5 97.7128C105.338 97.7128 103.208 97.3454 101.171 96.621L44.2783 76.3955V104.114C44.2783 110.895 51.3527 116.63 65.3051 121.158C77.4664 125.106 92.4518 127.28 107.5 127.28C122.548 127.28 137.533 125.106 149.695 121.158C163.647 116.63 170.722 110.895 170.722 104.114V76.3955L113.83 96.621C111.792 97.3454 109.662 97.7128 107.5 97.7128Z" fill="white"/>
</g>
<defs>
<clipPath id="clip0_1720_6518">
<rect width="215" height="128" fill="white"/>
</clipPath>
</defs>
</svg>
