<svg width="217" height="217" viewBox="0 0 217 217" fill="none" xmlns="http://www.w3.org/2000/svg">
<g clip-path="url(#clip0_1716_6518)">
<path d="M135.625 58.7705C130.634 58.7705 126.583 54.7198 126.583 49.7288V36.1663H90.4163V49.7288C90.4163 54.7198 86.3657 58.7705 81.3747 58.7705C76.3837 58.7705 72.333 54.7198 72.333 49.7288V36.1663C72.333 26.1934 80.4434 18.083 90.4163 18.083H126.583C136.556 18.083 144.666 26.1934 144.666 36.1663V49.7288C144.666 54.7198 140.616 58.7705 135.625 58.7705Z" fill="white"/>
<path d="M114.92 139.061C113.292 139.694 110.941 140.146 108.5 140.146C106.059 140.146 103.708 139.694 101.538 138.88L0 105.064V174.052C0 187.796 11.1213 198.917 24.8646 198.917H192.135C205.879 198.917 217 187.796 217 174.052V105.064L114.92 139.061Z" fill="white"/>
<path d="M217 70.0726V90.778L110.67 126.221C109.947 126.493 109.223 126.583 108.5 126.583C107.777 126.583 107.053 126.493 106.33 126.221L0 90.778V70.0726C0 56.3293 11.1213 45.208 24.8646 45.208H192.135C205.879 45.208 217 56.3293 217 70.0726Z" fill="white"/>
</g>
<defs>
<clipPath id="clip0_1716_6518">
<rect width="217" height="217" fill="white"/>
</clipPath>
</defs>
</svg>
